<?xml version="1.0" encoding="utf-8"?>
<!-- Generator: Adobe Illustrator 18.1.1, SVG Export Plug-In . SVG Version: 6.00 Build 0)  -->
<!DOCTYPE svg PUBLIC "-//W3C//DTD SVG 1.0//EN" "http://www.w3.org/TR/2001/REC-SVG-20010904/DTD/svg10.dtd">
<svg version="1.0" id="default" xmlns="http://www.w3.org/2000/svg" xmlns:xlink="http://www.w3.org/1999/xlink" x="0px" y="0px"
	 width="34px" height="38px" viewBox="0 0 34 38" enable-background="new 0 0 34 38" xml:space="preserve">
<g>
	<path d="M17,37.5c-15.31,0-16.5-6.61-16.5-8.64V0.5h14.7L17,4.56l1.8-4.06h14.7v28.36C33.5,30.89,32.31,37.5,17,37.5z"/>
	<path fill="#FFFFFF" d="M33,1v27.86C33,30.72,31.96,37,17,37S1,30.72,1,28.86V1h13.88L17,5.79L19.12,1H33 M34,0h-1H19.12h-0.65
		l-0.26,0.59L17,3.33l-1.21-2.73L15.53,0h-0.65H1H0v1v27.86C0,31.01,1.23,38,17,38c6.63,0,11.43-1.21,14.26-3.61
		c2.39-2.02,2.74-4.33,2.74-5.53V1V0L34,0z"/>
</g>
<path fill="#F1B82D" d="M22,26.41v-2.66c0-0.54-1.33-0.96-2-1.32V20h0.67H29v2.41c-0.67,0.36-1,0.78-1,1.32v2.38
	C27.97,27.85,28.61,33,16.99,33C5.38,33,6.03,27.85,6,26.11v-2.38c0-0.54-0.33-0.96-1-1.32V20h9v0.55v1.87c-0.67,0.36-2,0.78-2,1.32
	v2.66c0.03,0.42,0.18,2.59,4.99,2.59S21.97,26.83,22,26.41z"/>
<path fill="#F1B82D" d="M16.99,12.28L21,5h8v2c-0.67,0.36-1,0.46-1,1v6c0,0.54,0.33,0.96,1,1.32V17h-8v-1.7c0.67-0.36,2-0.78,2-1.32
	V9.68L17.92,17h-1.85L11,9.68v4.31c0,0.54,1.33,0.96,2,1.32V17H5v-1.68c0.67-0.36,1-0.78,1-1.32V8c0-0.54-0.33-0.64-1-1V5h8
	L16.99,12.28"/>
<g>
</g>
<g>
</g>
<g>
</g>
<g>
</g>
<g>
</g>
<g>
</g>
<g>
</g>
<g>
</g>
<g>
</g>
<g>
</g>
<g>
</g>
<g>
</g>
<g>
</g>
<g>
</g>
<g>
</g>
</svg>
